<svg width="33" height="31" viewBox="0 0 33 31" fill="none" xmlns="http://www.w3.org/2000/svg">
<g clip-path="url(#clip0)">
<path d="M16.1399 0H16.1318C7.2349 0 0 6.95175 0 15.5C0 18.8906 1.13758 22.0333 3.07186 24.5849L1.06093 30.3432L7.26314 28.4386C9.81461 30.0623 12.8582 31 16.1399 31C25.0367 31 32.2716 24.0463 32.2716 15.5C32.2716 6.95369 25.0367 0 16.1399 0Z" fill="#29C9A1"/>
<path d="M25.5288 21.8879C25.1396 22.9439 23.5946 23.8196 22.3622 24.0754C21.5191 24.2478 20.4178 24.3854 16.7106 22.909C11.9687 21.0219 8.915 16.3932 8.67699 16.0929C8.44907 15.7926 6.76086 13.6419 6.76086 11.4177C6.76086 9.19343 7.93676 8.11037 8.41075 7.64537C8.80003 7.26369 9.44344 7.08931 10.0606 7.08931C10.2603 7.08931 10.4398 7.099 10.6012 7.10675C11.0752 7.12612 11.3132 7.15325 11.6258 7.87206C12.0151 8.773 12.9631 10.9972 13.076 11.2259C13.191 11.4545 13.306 11.7645 13.1446 12.0648C12.9933 12.3748 12.8602 12.5124 12.6222 12.7759C12.3842 13.0394 12.1583 13.2409 11.9203 13.5237C11.7025 13.7698 11.4564 14.0333 11.7307 14.4886C12.005 14.9342 12.953 16.4203 14.3487 17.6138C16.1499 19.1541 17.6102 19.6462 18.1326 19.8555C18.5219 20.0105 18.9858 19.9737 19.2702 19.6831C19.6312 19.3091 20.0769 18.6891 20.5308 18.0788C20.8535 17.6409 21.2609 17.5867 21.6885 17.7417C22.1242 17.887 24.4296 18.9817 24.9036 19.2084C25.3776 19.437 25.6902 19.5455 25.8052 19.7373C25.9181 19.9291 25.9181 20.8301 25.5288 21.8879Z" fill="#FAFAFA"/>
</g>
<defs>
<clipPath id="clip0">
<rect width="32.2716" height="31" fill="white"/>
</clipPath>
</defs>
</svg>
