<svg width="24" height="23" viewBox="0 0 24 23" fill="none" xmlns="http://www.w3.org/2000/svg">
<g clip-path="url(#clip0)">
<path d="M21.4159 0.831055H1.78503C0.85614 0.831055 0.100464 1.58673 0.100464 2.51562V17.3398C0.100464 18.2687 0.85614 19.0244 1.78503 19.0244H8.97509L8.56958 20.4437C8.40674 21.0136 7.7684 21.4951 7.17566 21.4951H4.63757C4.45151 21.4951 4.30066 21.6459 4.30066 21.832C4.30066 22.0181 4.45151 22.1689 4.63757 22.1689H18.5634C18.7494 22.1689 18.9003 22.0181 18.9003 21.832C18.9003 21.6459 18.7494 21.4951 18.5634 21.4951H16.0253C15.4325 21.4951 14.7942 21.0136 14.6313 20.4437L14.2258 19.0244H21.4159C22.3448 19.0244 23.1005 18.2687 23.1005 17.3398V2.51562C23.1005 1.58673 22.3448 0.831055 21.4159 0.831055ZM1.78503 1.50488H21.4159C21.9732 1.50488 22.4266 1.95832 22.4266 2.51562V14.3076H0.774292V2.51562C0.774292 1.95832 1.22769 1.50488 1.78503 1.50488ZM13.9834 20.6288C14.0759 20.9525 14.2597 21.2498 14.5006 21.4951H8.70035C8.94127 21.2498 9.12504 20.9524 9.21749 20.6288L9.67588 19.0244H13.525L13.9834 20.6288ZM21.4159 18.3506H1.78503C1.22769 18.3506 0.774292 17.8971 0.774292 17.3398V14.9814H22.4266V17.3398C22.4266 17.8971 21.9732 18.3506 21.4159 18.3506Z" fill="#3F434A"/>
<path d="M1.78503 13.6338H21.4159C21.602 13.6338 21.7528 13.483 21.7528 13.2969V2.51562C21.7528 2.32951 21.602 2.17871 21.4159 2.17871H1.78503C1.59897 2.17871 1.44812 2.32951 1.44812 2.51562V7.23242C1.44812 7.41853 1.59897 7.56934 1.78503 7.56934C1.9711 7.56934 2.12195 7.41853 2.12195 7.23242V2.85254H21.079V12.96H2.12195V8.58008C2.12195 8.39397 1.9711 8.24316 1.78503 8.24316C1.59897 8.24316 1.44812 8.39397 1.44812 8.58008V13.2969C1.44812 13.483 1.59897 13.6338 1.78503 13.6338Z" fill="#3F434A"/>
<path d="M11.6005 15.6553C11.0431 15.6553 10.5897 16.1087 10.5897 16.666C10.5897 17.2233 11.0431 17.6768 11.6005 17.6768C12.1578 17.6768 12.6112 17.2233 12.6112 16.666C12.6112 16.1087 12.1578 15.6553 11.6005 15.6553ZM11.6005 17.0029C11.4147 17.0029 11.2635 16.8518 11.2635 16.666C11.2635 16.4802 11.4147 16.3291 11.6005 16.3291C11.7863 16.3291 11.9374 16.4802 11.9374 16.666C11.9374 16.8518 11.7863 17.0029 11.6005 17.0029Z" fill="#3F434A"/>
</g>
<defs>
<clipPath id="clip0">
<rect width="23" height="23" fill="white" transform="translate(0.100464)"/>
</clipPath>
</defs>
</svg>
