<svg width="23" height="23" viewBox="0 0 23 23" fill="none" xmlns="http://www.w3.org/2000/svg">
<g clip-path="url(#clip0)">
<path d="M8.48175 10.7682C7.74582 10.7682 7.14709 11.3942 7.14709 12.1635C7.14709 12.9329 7.74582 13.5589 8.48175 13.5589C9.21767 13.5589 9.8164 12.9329 9.8164 12.1635C9.8164 11.3942 9.21767 10.7682 8.48175 10.7682ZM8.48175 12.8838C8.1019 12.8838 7.79283 12.5607 7.79283 12.1636C7.79283 11.7665 8.10186 11.4434 8.48175 11.4434C8.86163 11.4434 9.17067 11.7665 9.17067 12.1636C9.17067 12.5607 8.86159 12.8838 8.48175 12.8838Z" fill="#3F434A"/>
<path d="M14.0839 12.1635C14.0839 12.9329 14.6826 13.5589 15.4185 13.5589C16.1544 13.5589 16.7532 12.9329 16.7532 12.1635C16.7532 11.3942 16.1544 10.7682 15.4185 10.7682C14.6826 10.7682 14.0839 11.3942 14.0839 12.1635ZM15.4185 11.4434C15.7984 11.4434 16.1074 11.7664 16.1074 12.1635C16.1074 12.5607 15.7984 12.8838 15.4185 12.8838C15.0387 12.8838 14.7296 12.5607 14.7296 12.1635C14.7296 11.7664 15.0387 11.4434 15.4185 11.4434Z" fill="#3F434A"/>
<path d="M22.9133 16.9117L21.4577 7.84938C21.4567 7.84359 21.4556 7.83784 21.4544 7.83213C21.2496 6.32945 20.2823 5.10003 18.999 4.54852V3.922C18.999 3.36362 18.5645 2.90932 18.0304 2.90932H16.8128C16.2787 2.90932 15.8441 3.36362 15.8441 3.922V4.59969C15.4146 4.80134 15.0185 5.08296 14.673 5.43923H9.22717C8.88162 5.08296 8.48557 4.80134 8.05602 4.59969V3.922C8.05602 3.36362 7.62151 2.90932 7.08737 2.90932H5.86977C5.33566 2.90932 4.90112 3.36362 4.90112 3.922V4.54857C3.61794 5.10003 2.6508 6.32932 2.4458 7.83182C2.44455 7.83761 2.44348 7.84345 2.44253 7.84938L1.97375 10.7678C1.94423 10.9516 2.06282 11.1257 2.23869 11.1566C2.41456 11.1873 2.58107 11.0635 2.61059 10.8796L3.07486 7.98896C3.07783 7.97665 3.08019 7.96407 3.08182 7.95131C3.30655 6.21737 4.73969 4.90983 6.41555 4.90983C7.30587 4.90983 8.13628 5.2666 8.7687 5.91595V6.37698C8.7687 7.05943 9.29979 7.61467 9.95257 7.61467H11.3043C11.4826 7.61467 11.6272 7.46355 11.6272 7.27712C11.6272 7.09065 11.4826 6.93958 11.3043 6.93958H9.95257C9.65583 6.93958 9.41443 6.68721 9.41443 6.37698V6.11423H14.4857V6.37698C14.4857 6.68721 14.2443 6.93958 13.9475 6.93958H12.5958C12.4175 6.93958 12.2729 7.0907 12.2729 7.27712C12.2729 7.46355 12.4175 7.61467 12.5958 7.61467H13.9475C14.6003 7.61467 15.1314 7.05943 15.1314 6.37698V5.91595C15.7638 5.26655 16.5943 4.90983 17.4846 4.90983C19.1604 4.90983 20.5936 6.21737 20.8183 7.95131C20.8199 7.96393 20.8222 7.97633 20.8252 7.98851L22.2764 17.0235C22.4287 17.9715 21.9419 18.891 21.0926 19.2595C20.5842 19.4802 20.0283 19.4704 19.5272 19.2323C19.0261 18.9941 18.6536 18.5625 18.4784 18.017L18.1812 17.0917C18.1244 16.915 17.9413 16.8197 17.7723 16.8792C17.6032 16.9386 17.5122 17.1299 17.569 17.3066L17.8662 18.2319C18.0957 18.9463 18.6037 19.535 19.2599 19.8468C19.6015 20.0092 19.9707 20.0906 20.3402 20.0906C20.6805 20.0906 21.021 20.0215 21.3402 19.883C22.4688 19.3934 23.1156 18.1715 22.9133 16.9117ZM5.5469 4.33564V3.922C5.5469 3.73584 5.69175 3.58446 5.86977 3.58446H7.08737C7.26543 3.58446 7.41024 3.73589 7.41024 3.922V4.36403C7.0896 4.27904 6.75634 4.23479 6.4156 4.23479C6.1183 4.23479 5.82761 4.27001 5.5469 4.33564ZM16.49 4.36403V3.922C16.49 3.73584 16.6348 3.58446 16.8128 3.58446H18.0304C18.2085 3.58446 18.3533 3.73589 18.3533 3.922V4.33564C18.0726 4.27001 17.7819 4.23479 17.4846 4.23479C17.1439 4.23479 16.8106 4.27904 16.49 4.36403Z" fill="#3F434A"/>
<path d="M17.7698 15.8111L17.1959 14.0247C17.1632 13.9227 17.0859 13.8432 16.9879 13.8105C16.8899 13.7779 16.7828 13.796 16.6996 13.8594C16.3491 14.1265 15.9341 14.2677 15.4998 14.2677C14.9404 14.2677 14.4184 14.0352 14.0298 13.6129C13.9689 13.5467 13.8849 13.5094 13.7971 13.5094H10.1032C10.0154 13.5094 9.93133 13.5468 9.87049 13.6129C9.48192 14.0352 8.95985 14.2677 8.40048 14.2677C7.96611 14.2677 7.55116 14.1265 7.20063 13.8594C7.11752 13.7961 7.01049 13.7779 6.91243 13.8105C6.81438 13.8432 6.73712 13.9227 6.70438 14.0247L5.42185 18.0171C5.24662 18.5626 4.87417 18.9941 4.37307 19.2323C3.87192 19.4705 3.31599 19.4801 2.80759 19.2596C1.95831 18.8911 1.47156 17.9715 1.62384 17.0235L2.39663 12.2124C2.42615 12.0285 2.30756 11.8544 2.13169 11.8236C1.9556 11.793 1.78931 11.9167 1.75979 12.1006L0.987001 16.9117C0.784661 18.1715 1.43151 19.3934 2.56009 19.8831C2.87934 20.0216 3.21974 20.0907 3.56006 20.0907C3.92946 20.0907 4.29877 20.0093 4.64038 19.8469C5.29659 19.5351 5.80457 18.9464 6.03407 18.232L7.18773 14.6408C7.56143 14.8394 7.97389 14.9429 8.40057 14.9429C9.09005 14.9429 9.73638 14.6747 10.2357 14.1845H13.6648C14.1641 14.6746 14.8104 14.9429 15.4999 14.9429C15.9265 14.9429 16.339 14.8394 16.7127 14.6408L17.1577 16.026C17.2144 16.2027 17.3975 16.2981 17.5666 16.2386C17.7355 16.1792 17.8265 15.9878 17.7698 15.8111Z" fill="#3F434A"/>
<path d="M6.44159 6.33257C5.88583 6.33257 5.43367 6.80528 5.43367 7.3863V7.46271H5.36058C4.80482 7.46271 4.35266 7.93542 4.35266 8.51644C4.35266 9.09746 4.80478 9.57017 5.36058 9.57017H5.43367V9.64659C5.43367 10.2276 5.88583 10.7003 6.44159 10.7003C6.99735 10.7003 7.44951 10.2276 7.44951 9.64659V9.57017H7.5226C8.07836 9.57017 8.53052 9.09746 8.53052 8.51644C8.53052 7.93542 8.0784 7.46271 7.5226 7.46271H7.44951V7.3863C7.44946 6.80528 6.99735 6.33257 6.44159 6.33257ZM7.5226 8.13784C7.72227 8.13784 7.88474 8.30769 7.88474 8.51644C7.88474 8.72519 7.72227 8.89504 7.5226 8.89504H7.1266C6.94828 8.89504 6.80373 9.04616 6.80373 9.23259V9.64659C6.80373 9.85538 6.64126 10.0252 6.44159 10.0252C6.24191 10.0252 6.0794 9.85534 6.0794 9.64659V9.23259C6.0794 9.04616 5.93486 8.89504 5.75654 8.89504H5.36058C5.1609 8.89504 4.99844 8.72519 4.99844 8.51644C4.99844 8.30764 5.1609 8.13784 5.36058 8.13784H5.75654C5.93486 8.13784 6.0794 7.98672 6.0794 7.8003V7.3863C6.0794 7.1775 6.24187 7.0077 6.44159 7.0077C6.64126 7.0077 6.80373 7.17755 6.80373 7.3863V7.8003C6.80373 7.98672 6.94828 8.13784 7.1266 8.13784H7.5226Z" fill="#3F434A"/>
<path d="M17.6798 5.87155C17.1599 5.87155 16.7369 6.31376 16.7369 6.85732C16.7369 7.40087 17.1599 7.84308 17.6798 7.84308C18.1998 7.84308 18.6227 7.40087 18.6227 6.85732C18.6227 6.31376 18.1998 5.87155 17.6798 5.87155ZM17.6798 7.168C17.516 7.168 17.3827 7.0286 17.3827 6.85736C17.3827 6.68612 17.516 6.54673 17.6798 6.54673C17.8437 6.54673 17.977 6.68612 17.977 6.85736C17.977 7.0286 17.8437 7.168 17.6798 7.168Z" fill="#3F434A"/>
<path d="M17.6798 9.18976C17.1599 9.18976 16.7369 9.63197 16.7369 10.1755C16.7369 10.719 17.1599 11.1612 17.6798 11.1612C18.1998 11.1612 18.6227 10.719 18.6227 10.1755C18.6227 9.63197 18.1998 9.18976 17.6798 9.18976ZM17.6798 10.4862C17.516 10.4862 17.3827 10.3468 17.3827 10.1755C17.3827 10.0042 17.516 9.86489 17.6798 9.86489C17.8437 9.86489 17.977 10.0043 17.977 10.1755C17.977 10.3468 17.8437 10.4862 17.6798 10.4862Z" fill="#3F434A"/>
<path d="M20.2097 8.51644C20.2097 7.97288 19.7867 7.53067 19.2668 7.53067C18.7468 7.53067 18.3239 7.97288 18.3239 8.51644C18.3239 9.05999 18.7468 9.5022 19.2668 9.5022C19.7867 9.5022 20.2097 9.05999 20.2097 8.51644ZM18.9696 8.51644C18.9696 8.34515 19.1029 8.2058 19.2668 8.2058C19.4306 8.2058 19.5639 8.34519 19.5639 8.51644C19.5639 8.68768 19.4306 8.82707 19.2668 8.82707C19.1029 8.82707 18.9696 8.68772 18.9696 8.51644Z" fill="#3F434A"/>
<path d="M15.15 8.51644C15.15 9.05999 15.573 9.5022 16.0929 9.5022C16.6129 9.5022 17.0358 9.05999 17.0358 8.51644C17.0358 7.97288 16.6128 7.53067 16.0929 7.53067C15.573 7.53067 15.15 7.97288 15.15 8.51644ZM16.3901 8.51644C16.3901 8.68772 16.2568 8.82707 16.0929 8.82707C15.9291 8.82707 15.7958 8.68768 15.7958 8.51644C15.7958 8.34519 15.9291 8.2058 16.0929 8.2058C16.2568 8.20576 16.3901 8.34515 16.3901 8.51644Z" fill="#3F434A"/>
<path d="M10.9968 9.82357C11.1751 9.82357 11.3197 9.67245 11.3197 9.48603C11.3197 9.2996 11.1751 9.14848 10.9968 9.14848H10.0304C9.85207 9.14848 9.70752 9.2996 9.70752 9.48603C9.70752 9.67245 9.85207 9.82357 10.0304 9.82357H10.9968Z" fill="#3F434A"/>
<path d="M13.87 9.14848H12.9036C12.7252 9.14848 12.5807 9.2996 12.5807 9.48603C12.5807 9.67245 12.7252 9.82357 12.9036 9.82357H13.87C14.0483 9.82357 14.1928 9.67245 14.1928 9.48603C14.1928 9.29956 14.0483 9.14848 13.87 9.14848Z" fill="#3F434A"/>
</g>
<defs>
<clipPath id="clip0">
<rect width="22" height="23" fill="white" transform="translate(0.950195)"/>
</clipPath>
</defs>
</svg>
