<svg width="23" height="23" viewBox="0 0 23 23" fill="none" xmlns="http://www.w3.org/2000/svg">
<g clip-path="url(#clip0)">
<path d="M3.07635 18.8706C2.9975 18.8706 2.92188 18.8378 2.86613 18.7795C2.81038 18.7212 2.77905 18.6422 2.77905 18.5597V4.44023C2.77905 4.3578 2.81038 4.27874 2.86613 4.22045C2.92188 4.16216 2.9975 4.12942 3.07635 4.12942C3.1552 4.12942 3.23082 4.16216 3.28657 4.22045C3.34233 4.27874 3.37365 4.3578 3.37365 4.44023V18.5597C3.37365 18.6422 3.34233 18.7212 3.28657 18.7795C3.23082 18.8378 3.1552 18.8706 3.07635 18.8706Z" fill="#3F434A"/>
<path d="M3.0764 10.0159H1.867C1.78815 10.0159 1.71253 9.98313 1.65678 9.92485C1.60102 9.86656 1.5697 9.7875 1.5697 9.70507V7.45946C1.5697 7.37703 1.60102 7.29797 1.65678 7.23969C1.71253 7.1814 1.78815 7.14865 1.867 7.14865H3.0764C3.15525 7.14865 3.23087 7.1814 3.28663 7.23969C3.34238 7.29797 3.3737 7.37703 3.3737 7.45946V9.70507C3.3737 9.7875 3.34238 9.86656 3.28663 9.92485C3.23087 9.98313 3.15525 10.0159 3.0764 10.0159ZM2.1643 9.39426H2.77911V7.77027H2.1643V9.39426Z" fill="#3F434A"/>
<path d="M3.0764 14.1108H1.867C1.78815 14.1108 1.71253 14.0781 1.65678 14.0198C1.60102 13.9615 1.5697 13.8824 1.5697 13.8V11.5544C1.5697 11.472 1.60102 11.3929 1.65678 11.3346C1.71253 11.2763 1.78815 11.2436 1.867 11.2436H3.0764C3.15525 11.2436 3.23087 11.2763 3.28663 11.3346C3.34238 11.3929 3.3737 11.472 3.3737 11.5544V13.8C3.3737 13.8824 3.34238 13.9615 3.28663 14.0198C3.23087 14.0781 3.15525 14.1108 3.0764 14.1108ZM2.1643 13.4892H2.77911V11.8652H2.1643V13.4892Z" fill="#3F434A"/>
<path d="M7.64945 17.1288H6.78729C6.70844 17.1288 6.63282 17.096 6.57707 17.0378C6.52131 16.9795 6.48999 16.9004 6.48999 16.818C6.48999 16.7356 6.52131 16.6565 6.57707 16.5982C6.63282 16.5399 6.70844 16.5072 6.78729 16.5072H7.64945C7.7283 16.5072 7.80392 16.5399 7.85967 16.5982C7.91543 16.6565 7.94675 16.7356 7.94675 16.818C7.94675 16.9004 7.91543 16.9795 7.85967 17.0378C7.80392 17.096 7.7283 17.1288 7.64945 17.1288Z" fill="#3F434A"/>
<path d="M20.2072 17.1288H14.2821C14.2291 17.1288 14.1771 17.114 14.1314 17.0859C14.0857 17.0578 14.048 17.0175 14.0223 16.969L13.307 15.6182H11.8532L11.1379 16.9703C11.1121 17.0187 11.0744 17.059 11.0288 17.0871C10.9831 17.1152 10.931 17.13 10.878 17.13H9.73047C9.65163 17.13 9.57601 17.0973 9.52025 17.039C9.4645 16.9807 9.43318 16.9016 9.43318 16.8192C9.43318 16.7368 9.4645 16.6577 9.52025 16.5994C9.57601 16.5412 9.65163 16.5084 9.73047 16.5084H10.7032L11.4167 15.1586C11.4423 15.1095 11.4801 15.0686 11.526 15.0401C11.5719 15.0116 11.6244 14.9966 11.6778 14.9966H13.4824C13.5355 14.9967 13.5877 15.0116 13.6334 15.0398C13.6792 15.0681 13.7168 15.1087 13.7425 15.1573L14.456 16.5072H20.2072C20.26 16.5063 20.3105 16.484 20.3479 16.445C20.8684 15.9039 21.21 15.5468 21.7267 15.0035C21.7638 14.9644 21.785 14.9118 21.7859 14.8568V7.91013C21.785 7.85493 21.7637 7.80223 21.7264 7.76312C21.2088 7.2192 20.8675 6.86177 20.3476 6.32158C20.31 6.28246 20.2593 6.26016 20.2063 6.25942H14.4569L13.7434 7.60927C13.7177 7.65811 13.6799 7.69883 13.634 7.72715C13.5881 7.75548 13.5357 7.77037 13.4824 7.77027H11.6778C11.6246 7.77024 11.5725 7.75531 11.5267 7.72705C11.481 7.69879 11.4433 7.65823 11.4176 7.60958L10.7041 6.25973H3.37426V16.5072H4.70615C4.785 16.5072 4.86062 16.5399 4.91637 16.5982C4.97212 16.6565 5.00345 16.7355 5.00345 16.818C5.00345 16.9004 4.97212 16.9795 4.91637 17.0377C4.86062 17.096 4.785 17.1288 4.70615 17.1288H3.07696C2.99811 17.1288 2.92249 17.096 2.86674 17.0377C2.81099 16.9795 2.77966 16.9004 2.77966 16.818V5.94892C2.77966 5.86649 2.81099 5.78743 2.86674 5.72914C2.92249 5.67085 2.99811 5.63811 3.07696 5.63811H10.878C10.931 5.63811 10.9831 5.65292 11.0288 5.681C11.0744 5.70909 11.1121 5.74944 11.1379 5.79786L11.8532 7.14865H13.307L14.0223 5.79786C14.048 5.74944 14.0857 5.70909 14.1314 5.681C14.1771 5.65292 14.2291 5.63811 14.2821 5.63811H20.2072C20.4176 5.63874 20.6192 5.72621 20.7682 5.88147C21.2885 6.42228 21.6304 6.77972 22.1483 7.32426C22.2962 7.48011 22.3796 7.69055 22.3805 7.91013V14.8568C22.3796 15.0766 22.296 15.2873 22.1477 15.4433C21.6307 15.9872 21.2885 16.3446 20.7676 16.886C20.6187 17.041 20.4173 17.1282 20.2072 17.1288Z" fill="#3F434A"/>
<path d="M17.3265 14.7505C16.6895 14.7505 16.0668 14.553 15.5372 14.183C15.0075 13.8131 14.5948 13.2872 14.351 12.672C14.1072 12.0567 14.0435 11.3797 14.1677 10.7266C14.292 10.0734 14.5987 9.4735 15.0491 9.00262C15.4995 8.53173 16.0734 8.21106 16.6981 8.08114C17.3229 7.95122 17.9704 8.0179 18.5589 8.27274C19.1474 8.52758 19.6504 8.95914 20.0043 9.51285C20.3582 10.0665 20.5471 10.7175 20.5471 11.3835C20.5462 12.2762 20.2066 13.1321 19.6028 13.7633C18.999 14.3945 18.1804 14.7496 17.3265 14.7505ZM17.3265 8.63806C16.8071 8.63806 16.2994 8.79908 15.8675 9.10075C15.4357 9.40241 15.0991 9.83119 14.9003 10.3328C14.7016 10.8345 14.6496 11.3865 14.7509 11.9191C14.8522 12.4516 15.1023 12.9408 15.4696 13.3247C15.8368 13.7087 16.3047 13.9702 16.8141 14.0761C17.3235 14.182 17.8516 14.1277 18.3314 13.9199C18.8112 13.7121 19.2214 13.3602 19.5099 12.9087C19.7985 12.4572 19.9525 11.9264 19.9525 11.3835C19.9518 10.6556 19.6749 9.95769 19.1826 9.44299C18.6902 8.92829 18.0227 8.63881 17.3265 8.63806Z" fill="#3F434A"/>
<path d="M17.3264 12.5748C17.1011 12.5748 16.8807 12.5049 16.6933 12.374C16.5059 12.2431 16.3599 12.057 16.2736 11.8394C16.1874 11.6217 16.1648 11.3821 16.2088 11.151C16.2528 10.9199 16.3613 10.7077 16.5207 10.541C16.68 10.3744 16.8831 10.261 17.1041 10.215C17.3252 10.169 17.5543 10.1926 17.7625 10.2828C17.9707 10.373 18.1487 10.5257 18.2739 10.7216C18.3991 10.9175 18.466 11.1478 18.466 11.3834C18.4657 11.6993 18.3455 12.0021 18.1319 12.2255C17.9182 12.4488 17.6286 12.5745 17.3264 12.5748ZM17.3264 10.8137C17.2187 10.8137 17.1133 10.8471 17.0237 10.9097C16.9341 10.9723 16.8642 11.0613 16.823 11.1654C16.7817 11.2695 16.7709 11.3841 16.792 11.4946C16.813 11.6051 16.8649 11.7066 16.9411 11.7863C17.0173 11.866 17.1144 11.9202 17.2201 11.9422C17.3258 11.9642 17.4354 11.9529 17.535 11.9098C17.6345 11.8667 17.7197 11.7937 17.7795 11.7C17.8394 11.6063 17.8714 11.4961 17.8714 11.3834C17.8712 11.2324 17.8138 11.0876 17.7116 10.9808C17.6094 10.874 17.4709 10.8139 17.3264 10.8137Z" fill="#3F434A"/>
<path d="M17.3265 10.8137C17.2719 10.8138 17.2184 10.7981 17.1717 10.7684C17.1251 10.7388 17.0872 10.6963 17.0622 10.6456C16.8858 10.2615 16.7943 9.84093 16.7943 9.41492C16.7943 8.98891 16.8858 8.56834 17.0622 8.18427C17.0797 8.14727 17.1041 8.1143 17.1339 8.08727C17.1638 8.06023 17.1985 8.03969 17.236 8.02683C17.2735 8.01397 17.3131 8.00906 17.3525 8.01237C17.3918 8.01569 17.4302 8.02716 17.4652 8.04614C17.5003 8.06511 17.5314 8.09119 17.5567 8.12287C17.582 8.15454 17.6011 8.19118 17.6127 8.23062C17.6243 8.27007 17.6283 8.31155 17.6245 8.35263C17.6206 8.39372 17.6089 8.43358 17.5902 8.4699C17.4576 8.76568 17.389 9.0883 17.389 9.41492C17.389 9.74154 17.4576 10.0642 17.5902 10.3599C17.6136 10.4073 17.625 10.4602 17.6233 10.5135C17.6216 10.5668 17.6068 10.6187 17.5803 10.6643C17.5538 10.7099 17.5165 10.7476 17.4721 10.7737C17.4276 10.7999 17.3775 10.8137 17.3265 10.8137Z" fill="#3F434A"/>
<path d="M16.7318 11.0717C16.7015 11.0715 16.6715 11.0666 16.6426 11.0571C16.2582 10.9157 15.9091 10.6859 15.6209 10.3847C15.3328 10.0834 15.113 9.71844 14.9777 9.31657C14.9624 9.2769 14.955 9.23434 14.9562 9.19156C14.9573 9.14879 14.9668 9.10671 14.9842 9.06798C15.0016 9.02924 15.0265 8.99468 15.0572 8.96645C15.088 8.93823 15.124 8.91694 15.163 8.90394C15.202 8.89094 15.2432 8.88649 15.2839 8.89089C15.3246 8.89528 15.364 8.90841 15.3996 8.92947C15.4353 8.95052 15.4664 8.97904 15.491 9.01324C15.5156 9.04744 15.5331 9.08658 15.5426 9.12822C15.6503 9.43455 15.8204 9.71274 16.0411 9.94351C16.2619 10.1743 16.528 10.3521 16.821 10.4647C16.8885 10.4872 16.9462 10.5341 16.9835 10.5971C17.0209 10.66 17.0355 10.7349 17.0248 10.8081C17.014 10.8813 16.9786 10.9481 16.9248 10.9965C16.8711 11.0448 16.8027 11.0715 16.7318 11.0717Z" fill="#3F434A"/>
<path d="M15.4047 11.9454C15.0087 11.9476 14.6181 11.8495 14.2663 11.6594C14.2309 11.6411 14.1994 11.6156 14.1736 11.5844C14.1477 11.5532 14.128 11.517 14.1157 11.4777C14.1034 11.4385 14.0987 11.3971 14.1019 11.356C14.1051 11.3148 14.1161 11.2747 14.1342 11.2381C14.1524 11.2014 14.1773 11.1689 14.2076 11.1424C14.2379 11.1159 14.2729 11.096 14.3107 11.0839C14.3484 11.0717 14.3881 11.0675 14.4274 11.0716C14.4667 11.0756 14.5048 11.0878 14.5395 11.1074C14.8224 11.2461 15.131 11.318 15.4435 11.318C15.7559 11.318 16.0645 11.2461 16.3474 11.1074C16.3822 11.0878 16.4203 11.0756 16.4596 11.0716C16.4989 11.0675 16.5386 11.0717 16.5763 11.0839C16.614 11.096 16.6491 11.1159 16.6794 11.1424C16.7097 11.1689 16.7346 11.2014 16.7528 11.2381C16.7709 11.2747 16.7819 11.3148 16.7851 11.356C16.7882 11.3971 16.7835 11.4385 16.7712 11.4777C16.7589 11.517 16.7393 11.5532 16.7134 11.5844C16.6876 11.6156 16.656 11.6411 16.6206 11.6594C16.2403 11.847 15.8252 11.9446 15.4047 11.9454Z" fill="#3F434A"/>
<path d="M15.259 13.8556C15.188 13.8556 15.1193 13.8291 15.0654 13.7807C15.0115 13.7323 14.9759 13.6654 14.9651 13.592C14.9543 13.5186 14.9691 13.4436 15.0066 13.3805C15.0442 13.3175 15.1021 13.2706 15.1698 13.2483C15.4628 13.1357 15.7289 12.9579 15.9497 12.7271C16.1704 12.4963 16.3405 12.2182 16.4482 11.9118C16.4722 11.8333 16.5251 11.7679 16.5952 11.7301C16.6653 11.6923 16.7469 11.6852 16.8221 11.7103C16.8972 11.7354 16.9597 11.7906 16.9959 11.8639C17.0321 11.9372 17.0389 12.0225 17.0149 12.1011C16.8796 12.503 16.6598 12.868 16.3717 13.1692C16.0835 13.4705 15.7344 13.7003 15.35 13.8416C15.3206 13.8512 15.2899 13.8559 15.259 13.8556Z" fill="#3F434A"/>
<path d="M17.3265 14.7505C17.2755 14.7504 17.2254 14.7367 17.181 14.7105C17.1366 14.6844 17.0993 14.6468 17.0728 14.6013C17.0463 14.5558 17.0314 14.504 17.0296 14.4507C17.0278 14.3975 17.0391 14.3446 17.0625 14.2973C17.195 14.0015 17.2637 13.6789 17.2637 13.3523C17.2637 13.0257 17.195 12.703 17.0625 12.4072C17.0437 12.3709 17.032 12.3311 17.0282 12.29C17.0243 12.2489 17.0283 12.2074 17.0399 12.168C17.0516 12.1285 17.0706 12.0919 17.0959 12.0602C17.1212 12.0285 17.1523 12.0025 17.1874 11.9835C17.2225 11.9645 17.2608 11.953 17.3002 11.9497C17.3395 11.9464 17.3791 11.9513 17.4166 11.9642C17.4542 11.977 17.4889 11.9976 17.5187 12.0246C17.5485 12.0516 17.5729 12.0846 17.5905 12.1216C17.7668 12.5057 17.8583 12.9263 17.8583 13.3523C17.8583 13.7783 17.7668 14.1989 17.5905 14.5829C17.5654 14.6335 17.5275 14.6758 17.4809 14.7053C17.4343 14.7349 17.3809 14.7505 17.3265 14.7505Z" fill="#3F434A"/>
<path d="M19.3935 13.8556C19.3303 13.8556 19.2687 13.8344 19.2178 13.7953C19.1668 13.7562 19.1291 13.7011 19.1102 13.6381C19.0025 13.3317 18.8324 13.0535 18.6116 12.8228C18.3909 12.592 18.1248 12.4142 17.8318 12.3016C17.7566 12.2765 17.6941 12.2212 17.658 12.1479C17.6218 12.0746 17.615 11.9893 17.639 11.9107C17.663 11.8322 17.7159 11.7668 17.786 11.729C17.8561 11.6912 17.9377 11.6841 18.0128 11.7092C18.3972 11.8506 18.7464 12.0804 19.0345 12.3816C19.3227 12.6828 19.5425 13.0478 19.6777 13.4497C19.6917 13.4962 19.695 13.5456 19.6874 13.5937C19.6798 13.6418 19.6615 13.6874 19.6339 13.7267C19.6063 13.7661 19.5702 13.7981 19.5286 13.8201C19.487 13.8422 19.441 13.8537 19.3944 13.8538L19.3935 13.8556Z" fill="#3F434A"/>
<path d="M20.2497 11.6942C20.2022 11.6942 20.1555 11.6823 20.1133 11.6594C19.8303 11.521 19.5218 11.4492 19.2094 11.4492C18.8969 11.4492 18.5884 11.521 18.3054 11.6594C18.2707 11.6791 18.2325 11.6912 18.1932 11.6953C18.154 11.6993 18.1143 11.6952 18.0765 11.683C18.0388 11.6708 18.0038 11.6509 17.9735 11.6245C17.9432 11.598 17.9182 11.5655 17.9001 11.5288C17.8819 11.4922 17.871 11.4521 17.8678 11.4109C17.8646 11.3698 17.8693 11.3284 17.8816 11.2892C17.8939 11.2499 17.9136 11.2137 17.9394 11.1825C17.9653 11.1513 17.9968 11.1258 18.0322 11.1074C18.3996 10.9232 18.8019 10.8275 19.2094 10.8275C19.6168 10.8275 20.0191 10.9232 20.3865 11.1074C20.4457 11.1395 20.4928 11.1913 20.5204 11.2547C20.548 11.3181 20.5544 11.3894 20.5386 11.457C20.5229 11.5247 20.4858 11.5848 20.4334 11.6279C20.381 11.6709 20.3164 11.6943 20.2497 11.6942Z" fill="#3F434A"/>
<path d="M17.9211 11.0711C17.8908 11.0708 17.8608 11.0658 17.8319 11.0562C17.7571 11.031 17.6948 10.976 17.6587 10.903C17.6226 10.83 17.6156 10.7451 17.6393 10.6667C17.7745 10.2648 17.9943 9.89984 18.2824 9.5986C18.5706 9.29736 18.9197 9.06757 19.3041 8.92618C19.3413 8.91381 19.3805 8.90923 19.4194 8.91269C19.4583 8.91615 19.4962 8.92758 19.5309 8.94634C19.5655 8.9651 19.5963 8.99082 19.6215 9.02202C19.6467 9.05323 19.6657 9.08931 19.6775 9.12821C19.6894 9.1671 19.6937 9.20806 19.6904 9.24873C19.6871 9.2894 19.6762 9.32899 19.6582 9.36524C19.6403 9.40149 19.6157 9.43369 19.5859 9.46C19.556 9.48631 19.5215 9.50622 19.4843 9.51858C19.1913 9.63116 18.9252 9.809 18.7044 10.0398C18.4837 10.2705 18.3136 10.5487 18.2059 10.8551C18.1866 10.9181 18.1486 10.973 18.0974 11.0119C18.0461 11.0507 17.9844 11.0715 17.9211 11.0711Z" fill="#3F434A"/>
<path d="M8.25883 14.7505C7.62185 14.7505 6.99918 14.553 6.46955 14.183C5.93992 13.8131 5.52713 13.2872 5.28336 12.672C5.0396 12.0567 4.97582 11.3797 5.10009 10.7266C5.22436 10.0734 5.5311 9.4735 5.98151 9.00262C6.43192 8.53173 7.00578 8.21106 7.63052 8.08114C8.25526 7.95122 8.90282 8.0179 9.49131 8.27274C10.0798 8.52758 10.5828 8.95914 10.9367 9.51285C11.2906 10.0665 11.4795 10.7175 11.4795 11.3835C11.4786 12.2762 11.139 13.1321 10.5352 13.7633C9.9314 14.3945 9.11273 14.7496 8.25883 14.7505ZM8.25883 8.63806C7.73945 8.63806 7.23174 8.79908 6.79989 9.10075C6.36804 9.40241 6.03146 9.83119 5.8327 10.3328C5.63394 10.8345 5.58194 11.3865 5.68326 11.9191C5.78459 12.4516 6.03469 12.9408 6.40195 13.3247C6.76921 13.7087 7.23712 13.9702 7.74652 14.0761C8.25592 14.182 8.78393 14.1277 9.26377 13.9199C9.74361 13.7121 10.1537 13.3602 10.4423 12.9087C10.7308 12.4572 10.8849 11.9264 10.8849 11.3835C10.8842 10.6556 10.6073 9.95769 10.1149 9.44299C9.62261 8.92829 8.95508 8.63881 8.25883 8.63806Z" fill="#3F434A"/>
<path d="M8.25893 12.5748C8.03355 12.5748 7.81323 12.5049 7.62583 12.374C7.43843 12.2431 7.29238 12.057 7.20613 11.8394C7.11988 11.6217 7.09731 11.3821 7.14128 11.151C7.18525 10.9199 7.29378 10.7077 7.45315 10.541C7.61252 10.3744 7.81556 10.261 8.03661 10.215C8.25766 10.169 8.48679 10.1926 8.69501 10.2828C8.90323 10.373 9.08121 10.5257 9.20642 10.7216C9.33163 10.9175 9.39847 11.1478 9.39847 11.3834C9.39815 11.6993 9.27799 12.0021 9.06436 12.2255C8.85072 12.4488 8.56105 12.5745 8.25893 12.5748ZM8.25893 10.8137C8.15115 10.8137 8.04579 10.8471 7.95617 10.9097C7.86655 10.9723 7.79671 11.0613 7.75546 11.1654C7.71422 11.2695 7.70342 11.3841 7.72445 11.4946C7.74548 11.6051 7.79738 11.7066 7.87359 11.7863C7.9498 11.866 8.0469 11.9202 8.15261 11.9422C8.25832 11.9642 8.36789 11.9529 8.46747 11.9098C8.56704 11.8667 8.65215 11.7937 8.71203 11.7C8.77191 11.6063 8.80387 11.4961 8.80387 11.3834C8.80371 11.2324 8.74625 11.0876 8.64409 10.9808C8.54192 10.874 8.40341 10.8139 8.25893 10.8137Z" fill="#3F434A"/>
<path d="M8.25884 10.8137C8.20426 10.8138 8.15073 10.7981 8.10412 10.7684C8.0575 10.7388 8.01959 10.6963 7.99454 10.6456C7.81822 10.2615 7.72668 9.84093 7.72668 9.41492C7.72668 8.98891 7.81822 8.56834 7.99454 8.18427C8.01206 8.14727 8.03645 8.1143 8.0663 8.08727C8.09614 8.06023 8.13084 8.03969 8.16836 8.02683C8.20588 8.01397 8.24548 8.00906 8.28483 8.01237C8.32419 8.01569 8.36253 8.02716 8.3976 8.04614C8.43267 8.06511 8.46377 8.09119 8.48909 8.12287C8.51441 8.15454 8.53344 8.19118 8.54507 8.23062C8.5567 8.27007 8.5607 8.31155 8.55683 8.35263C8.55296 8.39372 8.54131 8.43358 8.52254 8.4699C8.39002 8.76568 8.32133 9.0883 8.32133 9.41492C8.32133 9.74154 8.39002 10.0642 8.52254 10.3599C8.546 10.4073 8.55742 10.4602 8.55569 10.5135C8.55396 10.5668 8.53913 10.6187 8.51264 10.6643C8.48616 10.7099 8.4489 10.7476 8.40444 10.7737C8.35999 10.7999 8.30985 10.8137 8.25884 10.8137Z" fill="#3F434A"/>
<path d="M7.66427 11.0717C7.63401 11.0715 7.60395 11.0666 7.57508 11.0571C7.19068 10.9157 6.84154 10.6859 6.5534 10.3847C6.26526 10.0834 6.04546 9.71842 5.91022 9.31655C5.88633 9.23799 5.89326 9.15273 5.9295 9.07952C5.96574 9.00631 6.02832 8.95115 6.10346 8.92617C6.1786 8.90119 6.26016 8.90845 6.33018 8.94634C6.40021 8.98422 6.45297 9.04964 6.47687 9.1282C6.58455 9.43453 6.75465 9.71272 6.97539 9.9435C7.19613 10.1743 7.46223 10.3521 7.75524 10.4647C7.82296 10.4872 7.88073 10.5343 7.91808 10.5975C7.95543 10.6607 7.9699 10.7358 7.95887 10.8092C7.94784 10.8825 7.91203 10.9494 7.85793 10.9975C7.80383 11.0457 7.73503 11.072 7.66397 11.0717H7.66427Z" fill="#3F434A"/>
<path d="M6.33718 11.9454C5.94121 11.9476 5.55062 11.8495 5.19883 11.6594C5.16344 11.6411 5.1319 11.6156 5.10605 11.5844C5.08019 11.5532 5.06054 11.517 5.04824 11.4777C5.03594 11.4385 5.03124 11.3971 5.03441 11.356C5.03758 11.3148 5.04856 11.2747 5.0667 11.2381C5.08485 11.2014 5.1098 11.1689 5.1401 11.1424C5.1704 11.1159 5.20544 11.096 5.24317 11.0839C5.28091 11.0717 5.32058 11.0675 5.35988 11.0716C5.39917 11.0756 5.4373 11.0878 5.47204 11.1074C5.75494 11.2461 6.06354 11.318 6.37598 11.318C6.68841 11.318 6.99702 11.2461 7.27991 11.1074C7.31465 11.0878 7.35278 11.0756 7.39208 11.0716C7.43138 11.0675 7.47105 11.0717 7.50878 11.0839C7.54652 11.096 7.58156 11.1159 7.61186 11.1424C7.64215 11.1689 7.6671 11.2014 7.68525 11.2381C7.7034 11.2747 7.71438 11.3148 7.71755 11.356C7.72072 11.3971 7.71602 11.4385 7.70372 11.4777C7.69142 11.517 7.67176 11.5532 7.64591 11.5844C7.62005 11.6156 7.58851 11.6411 7.55313 11.6594C7.17283 11.847 6.75767 11.9446 6.33718 11.9454Z" fill="#3F434A"/>
<path d="M6.19152 13.8556C6.12048 13.8556 6.05178 13.8291 5.99787 13.7807C5.94396 13.7323 5.90839 13.6654 5.89761 13.592C5.88683 13.5186 5.90155 13.4436 5.9391 13.3805C5.97665 13.3175 6.03456 13.2706 6.10233 13.2483C6.39534 13.1357 6.66144 12.9579 6.88218 12.7271C7.10292 12.4963 7.27303 12.2182 7.38071 11.9118C7.40472 11.8333 7.4576 11.7679 7.52771 11.7301C7.59782 11.6923 7.67942 11.6852 7.75456 11.7103C7.8297 11.7354 7.89223 11.7906 7.92839 11.8639C7.96454 11.9372 7.97137 12.0225 7.94736 12.1011C7.81211 12.503 7.59232 12.868 7.30417 13.1692C7.01603 13.4705 6.66689 13.7003 6.28249 13.8416C6.25305 13.8512 6.22236 13.8559 6.19152 13.8556Z" fill="#3F434A"/>
<path d="M8.25883 14.7505C8.20787 14.7504 8.15779 14.7367 8.11337 14.7105C8.06896 14.6844 8.03171 14.6468 8.0052 14.6013C7.9787 14.5558 7.96382 14.504 7.96201 14.4507C7.96019 14.3975 7.97149 14.3446 7.99483 14.2973C8.12735 14.0015 8.19604 13.6789 8.19604 13.3523C8.19604 13.0257 8.12735 12.703 7.99483 12.4072C7.97606 12.3709 7.96441 12.3311 7.96054 12.29C7.95667 12.2489 7.96067 12.2074 7.9723 12.168C7.98393 12.1285 8.00296 12.0919 8.02828 12.0602C8.0536 12.0285 8.0847 12.0025 8.11977 11.9835C8.15484 11.9645 8.19318 11.953 8.23254 11.9497C8.27189 11.9464 8.31149 11.9513 8.34901 11.9642C8.38653 11.977 8.42123 11.9976 8.45107 12.0246C8.48092 12.0516 8.50531 12.0846 8.52283 12.1216C8.69915 12.5057 8.79068 12.9263 8.79068 13.3523C8.79068 13.7783 8.69915 14.1989 8.52283 14.5829C8.49773 14.6335 8.45983 14.6758 8.41327 14.7053C8.36672 14.7349 8.31329 14.7505 8.25883 14.7505Z" fill="#3F434A"/>
<path d="M10.326 13.8556C10.2628 13.8556 10.2012 13.8344 10.1503 13.7953C10.0993 13.7562 10.0616 13.7011 10.0427 13.6381C9.93498 13.3317 9.76487 13.0535 9.54413 12.8228C9.32339 12.592 9.0573 12.4142 8.76428 12.3016C8.72708 12.2891 8.69257 12.2692 8.66275 12.2428C8.63292 12.2164 8.60836 12.1842 8.59046 12.1479C8.57255 12.1116 8.56166 12.072 8.55841 12.0313C8.55515 11.9906 8.5596 11.9496 8.57148 11.9107C8.59549 11.8322 8.64837 11.7668 8.71848 11.729C8.7532 11.7103 8.7911 11.6989 8.83002 11.6955C8.86894 11.6921 8.90813 11.6967 8.94534 11.7092C9.32973 11.8506 9.67887 12.0804 9.96702 12.3816C10.2552 12.6828 10.475 13.0478 10.6102 13.4497C10.6242 13.4962 10.6275 13.5456 10.6199 13.5937C10.6123 13.6418 10.594 13.6874 10.5664 13.7267C10.5388 13.7661 10.5027 13.7981 10.4611 13.8201C10.4195 13.8422 10.3735 13.8537 10.3269 13.8538L10.326 13.8556Z" fill="#3F434A"/>
<path d="M11.1822 11.6943C11.1347 11.6942 11.088 11.6823 11.0458 11.6594C10.7628 11.521 10.4542 11.4492 10.1418 11.4492C9.82944 11.4492 9.52085 11.521 9.23791 11.6594C9.20317 11.6791 9.16504 11.6913 9.12574 11.6953C9.08645 11.6993 9.04678 11.6952 9.00904 11.683C8.97131 11.6708 8.93627 11.6509 8.90597 11.6245C8.87567 11.598 8.85072 11.5655 8.83257 11.5288C8.81443 11.4922 8.80345 11.4521 8.80028 11.4109C8.79711 11.3698 8.80181 11.3284 8.81411 11.2892C8.82641 11.2499 8.84606 11.2137 8.87191 11.1825C8.89777 11.1513 8.92931 11.1258 8.9647 11.1074C9.3321 10.9232 9.73437 10.8276 10.1418 10.8276C10.5493 10.8276 10.9516 10.9232 11.319 11.1074C11.3781 11.1395 11.4253 11.1913 11.4529 11.2547C11.4805 11.3181 11.4869 11.3894 11.4711 11.457C11.4554 11.5247 11.4183 11.5848 11.3659 11.6279C11.3135 11.6709 11.2489 11.6943 11.1822 11.6943Z" fill="#3F434A"/>
<path d="M8.85347 11.0711C8.8232 11.0708 8.79313 11.0658 8.76429 11.0562C8.68946 11.031 8.62719 10.976 8.59109 10.903C8.55498 10.83 8.54799 10.7451 8.57164 10.6667C8.70688 10.2648 8.92668 9.89983 9.21482 9.59859C9.50296 9.29735 9.8521 9.06756 10.2365 8.92617C10.3116 8.90119 10.3932 8.90845 10.4632 8.94634C10.5333 8.98422 10.586 9.04964 10.6099 9.1282C10.6338 9.20676 10.6269 9.29202 10.5906 9.36523C10.5544 9.43844 10.4918 9.4936 10.4167 9.51858C10.1237 9.63116 9.85755 9.80899 9.63681 10.0398C9.41607 10.2705 9.24597 10.5487 9.13829 10.8551C9.11898 10.9181 9.08095 10.973 9.02973 11.0119C8.9785 11.0507 8.91676 11.0715 8.85347 11.0711Z" fill="#3F434A"/>
<path d="M14.0473 6.70109H11.113C11.0341 6.70109 10.9585 6.66834 10.9028 6.61005C10.847 6.55177 10.8157 6.47271 10.8157 6.39028C10.8157 6.30785 10.847 6.22879 10.9028 6.1705C10.9585 6.11221 11.0341 6.07947 11.113 6.07947H14.0473C14.1261 6.07947 14.2018 6.11221 14.2575 6.1705C14.3133 6.22879 14.3446 6.30785 14.3446 6.39028C14.3446 6.47271 14.3133 6.55177 14.2575 6.61005C14.2018 6.66834 14.1261 6.70109 14.0473 6.70109Z" fill="#3F434A"/>
<path d="M14.0473 16.6874H11.113C11.0341 16.6874 10.9585 16.6547 10.9028 16.5964C10.847 16.5381 10.8157 16.4591 10.8157 16.3766C10.8157 16.2942 10.847 16.2151 10.9028 16.1568C10.9585 16.0986 11.0341 16.0658 11.113 16.0658H14.0473C14.1261 16.0658 14.2018 16.0986 14.2575 16.1568C14.3133 16.2151 14.3446 16.2942 14.3446 16.3766C14.3446 16.4591 14.3133 16.5381 14.2575 16.5964C14.2018 16.6547 14.1261 16.6874 14.0473 16.6874Z" fill="#3F434A"/>
</g>
<defs>
<clipPath id="clip0">
<rect width="22" height="23" fill="white" transform="translate(0.975098)"/>
</clipPath>
</defs>
</svg>
