<svg width="24" height="23" viewBox="0 0 24 23" fill="none" xmlns="http://www.w3.org/2000/svg">
<g clip-path="url(#clip0)">
<path d="M23.0492 18.6903C23.049 18.687 23.049 18.6836 23.0487 18.6803C23.0475 18.6669 23.0456 18.6539 23.0428 18.641C23.0426 18.6398 23.0422 18.6385 23.0418 18.6373C23.0392 18.6255 23.0359 18.614 23.0321 18.6028C23.031 18.5998 23.0299 18.5968 23.0288 18.5939C23.025 18.5837 23.0207 18.5738 23.016 18.5641C23.0152 18.5624 23.0147 18.5606 23.0138 18.5589L21.2119 15.0048V3.31164C21.2119 2.95199 20.9193 2.65942 20.5597 2.65942H2.54081C2.18116 2.65942 1.88859 2.95199 1.88859 3.31164V15.0047L0.0867246 18.5589C0.0858711 18.5606 0.085332 18.5623 0.0845234 18.5641C0.0798066 18.5737 0.075584 18.5836 0.0717656 18.5938C0.0706426 18.5968 0.0695195 18.5997 0.0684863 18.6027C0.064668 18.614 0.0613437 18.6255 0.0586934 18.6373C0.0584238 18.6385 0.0580195 18.6397 0.05775 18.641C0.0550098 18.6538 0.0530781 18.6669 0.0518652 18.6802C0.0515508 18.6835 0.0515508 18.6869 0.0513711 18.6902C0.0509219 18.6972 0.050293 18.7042 0.050293 18.7113V19.5659C0.050293 19.9931 0.397764 20.3406 0.824926 20.3406H22.2757C22.7028 20.3406 23.0503 19.9931 23.0503 19.5659V18.7113C23.0503 18.7042 23.0497 18.6972 23.0492 18.6903ZM2.56246 3.33333H20.5381V14.7484H2.56246V3.33333ZM2.43246 15.4222H20.6681L22.1648 18.3743H14.7626L14.391 17.0271C14.3154 16.7529 14.0639 16.5613 13.7794 16.5613H9.32109C9.0366 16.5613 8.78508 16.7529 8.70948 17.0271L8.33793 18.3743H0.935748L2.43246 15.4222ZM14.0636 18.3743H9.037L9.35114 17.2352H13.7494L14.0636 18.3743ZM22.3765 19.5659C22.3765 19.6215 22.3312 19.6667 22.2757 19.6667H0.824926C0.769357 19.6667 0.724121 19.6215 0.724121 19.5659V19.0481H22.3765V19.5659Z" fill="#3F434A"/>
<path d="M19.4825 9.60232C19.2964 9.60232 19.1456 9.75312 19.1456 9.93923V13.3558H3.95508V9.93923C3.95508 9.75312 3.80428 9.60232 3.61816 9.60232C3.43205 9.60232 3.28125 9.75312 3.28125 9.93923V13.5013C3.28125 13.7926 3.51821 14.0296 3.80958 14.0296H19.2911C19.5825 14.0296 19.8195 13.7926 19.8195 13.5013V9.93923C19.8194 9.75321 19.6686 9.60232 19.4825 9.60232Z" fill="#3F434A"/>
<path d="M19.2911 4.05208H3.80958C3.51826 4.05208 3.28125 4.28904 3.28125 4.5804V8.14244C3.28125 8.32855 3.43205 8.47935 3.61816 8.47935C3.80428 8.47935 3.95508 8.32855 3.95508 8.14244V4.72591H19.1456V8.14244C19.1456 8.32855 19.2964 8.47935 19.4825 8.47935C19.6686 8.47935 19.8194 8.32855 19.8194 8.14244V4.5804C19.8194 4.289 19.5825 4.05208 19.2911 4.05208Z" fill="#3F434A"/>
</g>
<defs>
<clipPath id="clip0">
<rect width="23" height="23" fill="white" transform="translate(0.050293)"/>
</clipPath>
</defs>
</svg>
