<svg width="23" height="23" viewBox="0 0 23 23" fill="none" xmlns="http://www.w3.org/2000/svg">
<path d="M16.4414 0H6.55859C5.6297 0 4.87402 0.755676 4.87402 1.68457V21.3154C4.87402 22.2443 5.6297 23 6.55859 23H16.4414C17.3703 23 18.126 22.2443 18.126 21.3154V1.68457C18.126 0.755676 17.3703 0 16.4414 0ZM17.4521 18.2832H7.90625C7.72018 18.2832 7.56934 18.4341 7.56934 18.6201C7.56934 18.8062 7.72018 18.957 7.90625 18.957H17.4521V21.3154C17.4521 21.8728 16.9988 22.3262 16.4414 22.3262H6.55859C6.00125 22.3262 5.54785 21.8728 5.54785 21.3154V18.957H6.55859C6.74466 18.957 6.89551 18.8062 6.89551 18.6201C6.89551 18.4341 6.74466 18.2832 6.55859 18.2832H5.54785V3.36914H17.4521V18.2832ZM17.4521 2.69531H5.54785V1.68457C5.54785 1.12722 6.00125 0.673828 6.55859 0.673828H16.4414C16.9988 0.673828 17.4521 1.12722 17.4521 1.68457V2.69531Z" fill="#3F434A"/>
<path d="M12.8477 1.34766H11.5C11.3139 1.34766 11.1631 1.4985 11.1631 1.68457C11.1631 1.87064 11.3139 2.02148 11.5 2.02148H12.8477C13.0337 2.02148 13.1846 1.87064 13.1846 1.68457C13.1846 1.4985 13.0337 1.34766 12.8477 1.34766Z" fill="#3F434A"/>
<path d="M11.5 19.6309C10.9427 19.6309 10.4893 20.0843 10.4893 20.6416C10.4893 21.1989 10.9427 21.6523 11.5 21.6523C12.0573 21.6523 12.5107 21.1989 12.5107 20.6416C12.5107 20.0843 12.0573 19.6309 11.5 19.6309ZM11.5 20.9785C11.3142 20.9785 11.1631 20.8274 11.1631 20.6416C11.1631 20.4558 11.3142 20.3047 11.5 20.3047C11.6858 20.3047 11.8369 20.4558 11.8369 20.6416C11.8369 20.8274 11.6858 20.9785 11.5 20.9785Z" fill="#3F434A"/>
<path d="M10.1523 2.02148C10.3384 2.02148 10.4893 1.87064 10.4893 1.68457C10.4893 1.4985 10.3384 1.34766 10.1523 1.34766C9.96627 1.34766 9.81543 1.4985 9.81543 1.68457C9.81543 1.87064 9.96627 2.02148 10.1523 2.02148Z" fill="#3F434A"/>
</svg>
