<svg width="23" height="23" viewBox="0 0 23 23" fill="none" xmlns="http://www.w3.org/2000/svg">
<g clip-path="url(#clip0)">
<path d="M19.5801 6.80355H15.8459C15.6679 6.80355 15.5237 6.9544 15.5237 7.14046C15.5237 7.32653 15.6679 7.47738 15.8459 7.47738H19.5801C19.7581 7.47738 19.9024 7.32653 19.9024 7.14046C19.9024 6.9544 19.7581 6.80355 19.5801 6.80355Z" fill="#3F434A"/>
<path d="M19.5801 8.56834H15.8459C15.6679 8.56834 15.5237 8.71919 15.5237 8.90526C15.5237 9.09132 15.6679 9.24217 15.8459 9.24217H19.5801C19.7581 9.24217 19.9024 9.09132 19.9024 8.90526C19.9024 8.71919 19.7581 8.56834 19.5801 8.56834Z" fill="#3F434A"/>
<path d="M19.9024 10.67C19.9024 10.4839 19.7582 10.3331 19.5801 10.3331H15.8459C15.6679 10.3331 15.5237 10.4839 15.5237 10.67C15.5237 10.8561 15.6679 11.0069 15.8459 11.0069H19.5801C19.7581 11.0069 19.9024 10.8561 19.9024 10.67Z" fill="#3F434A"/>
<path d="M17.7132 13.7685C17.0419 13.7685 16.4957 14.3395 16.4957 15.0414C16.4957 15.7432 17.0419 16.3141 17.7132 16.3141C18.3845 16.3141 18.9306 15.7432 18.9306 15.0414C18.9306 14.3395 18.3845 13.7685 17.7132 13.7685ZM17.7132 15.6403C17.3973 15.6403 17.1403 15.3716 17.1403 15.0414C17.1403 14.7111 17.3973 14.4424 17.7132 14.4424C18.0291 14.4424 18.2861 14.7111 18.2861 15.0414C18.2861 15.3716 18.0291 15.6403 17.7132 15.6403Z" fill="#3F434A"/>
<path d="M17.7132 16.835C17.0419 16.835 16.4957 17.406 16.4957 18.1078C16.4957 18.8096 17.0419 19.3806 17.7132 19.3806C18.3845 19.3806 18.9306 18.8096 18.9306 18.1078C18.9306 17.406 18.3845 16.835 17.7132 16.835ZM17.7132 18.7068C17.3973 18.7068 17.1403 18.4381 17.1403 18.1078C17.1403 17.7775 17.3973 17.5088 17.7132 17.5088C18.0291 17.5088 18.2861 17.7775 18.2861 18.1078C18.2861 18.438 18.0291 18.7068 17.7132 18.7068Z" fill="#3F434A"/>
<path d="M15.3178 12.1916H14.8496C14.6716 12.1916 14.5273 12.3424 14.5273 12.5285C14.5273 12.7146 14.6716 12.8654 14.8496 12.8654H15.3178C15.4959 12.8654 15.6401 12.7146 15.6401 12.5285C15.6401 12.3424 15.4959 12.1916 15.3178 12.1916Z" fill="#3F434A"/>
<path d="M17.2322 12.5285C17.2322 12.3424 17.088 12.1916 16.91 12.1916H16.4418C16.2638 12.1916 16.1195 12.3424 16.1195 12.5285C16.1195 12.7146 16.2638 12.8654 16.4418 12.8654H16.91C17.088 12.8654 17.2322 12.7146 17.2322 12.5285Z" fill="#3F434A"/>
<path d="M21.7529 11.8148C21.9309 11.8148 22.0752 11.664 22.0752 11.4779V6.439C22.0752 5.77811 21.5609 5.24039 20.9287 5.24039H16.6283V3.66737C16.6283 2.90518 16.0352 2.28508 15.3061 2.28508H4.40777C4.22975 2.28508 4.0855 2.43593 4.0855 2.62199C4.0855 2.80806 4.22975 2.95891 4.40777 2.95891H15.3061C15.6798 2.95891 15.9838 3.27673 15.9838 3.66737V5.24039H15.2103V4.2898C15.2103 4.00177 14.9862 3.76745 14.7107 3.76745H1.9928C1.71729 3.76745 1.49316 4.00177 1.49316 4.2898V15.3397C1.49316 15.6277 1.71729 15.8621 1.9928 15.8621H3.11931C3.29733 15.8621 3.44158 15.7113 3.44158 15.5251C3.44158 15.339 3.29733 15.1882 3.11931 15.1882H2.13769V4.44128H14.5658V5.24039H14.4975C13.8653 5.24039 13.351 5.77806 13.351 6.439V15.1883H4.40777C4.22975 15.1883 4.0855 15.3391 4.0855 15.5252C4.0855 15.7113 4.22975 15.8621 4.40777 15.8621H13.351V16.6707C12.7039 16.6707 1.92285 16.6707 1.39743 16.6707C1.02377 16.6707 0.719768 16.3529 0.719768 15.9622V3.66737C0.719768 3.27673 1.02377 2.95891 1.39743 2.95891H3.11931C3.29733 2.95891 3.44158 2.80806 3.44158 2.62199C3.44158 2.43593 3.29733 2.28508 3.11931 2.28508H1.39738C0.668335 2.28504 0.0751953 2.90514 0.0751953 3.66737V15.9622C0.0751953 16.7244 0.668335 17.3445 1.39738 17.3445H4.08555V18.0243C4.08555 18.3756 4.35887 18.6614 4.69488 18.6614H5.94493V20.0411H4.74215C4.56413 20.0411 4.41989 20.1919 4.41989 20.378C4.41989 20.5642 4.56413 20.715 4.74215 20.715H11.9614C12.1395 20.715 12.2837 20.5642 12.2837 20.378C12.2837 20.1919 12.1395 20.0411 11.9614 20.0411H10.7587V18.6614H12.0087C12.3447 18.6614 12.6181 18.3756 12.6181 18.0243V17.3445H13.3511V19.5164C13.3511 20.1772 13.8654 20.715 14.4976 20.715H20.9288C21.561 20.715 22.0753 20.1772 22.0753 19.5164V12.8249C22.0753 12.6388 21.9311 12.488 21.7531 12.488C21.575 12.488 21.4308 12.6388 21.4308 12.8249V19.5164C21.4308 19.8057 21.2056 20.0411 20.9288 20.0411H14.4975C14.2207 20.0411 13.9955 19.8057 13.9955 19.5164V6.43895C13.9955 6.14961 14.2206 5.91418 14.4975 5.91418H20.9287C21.2055 5.91418 21.4307 6.14957 21.4307 6.43895V11.4778C21.4307 11.6639 21.5749 11.8148 21.7529 11.8148ZM10.1141 20.0411H6.58946V18.6614H10.1141V20.0411ZM11.9735 17.9876C11.2379 17.9876 5.54932 17.9876 4.73008 17.9876V17.3445H11.9735V17.9876Z" fill="#3F434A"/>
</g>
<defs>
<clipPath id="clip0">
<rect width="22" height="23" fill="white" transform="translate(0.0751953)"/>
</clipPath>
</defs>
</svg>
