<svg width="23" height="23" viewBox="0 0 23 23" fill="none" xmlns="http://www.w3.org/2000/svg">
<g clip-path="url(#clip0)">
<path d="M17.5567 0H4.49387C3.45395 0 2.60791 0.884494 2.60791 1.97169V3.15742C2.60791 3.34345 2.75217 3.49428 2.93012 3.49428C3.10807 3.49428 3.25233 3.34345 3.25233 3.15742V1.97169C3.25233 1.25598 3.80928 0.673712 4.49387 0.673712H17.5567C18.2413 0.673712 18.7982 1.25598 18.7982 1.97169V21.0283C18.7982 21.744 18.2413 22.3263 17.5567 22.3263H4.49387C3.80928 22.3263 3.25233 21.744 3.25233 21.0283V4.50484C3.25233 4.31881 3.10807 4.16799 2.93012 4.16799C2.75217 4.16799 2.60791 4.31881 2.60791 4.50484V21.0283C2.60791 22.1155 3.45395 23 4.49387 23H17.5567C18.5966 23 19.4427 22.1155 19.4427 21.0283V1.97169C19.4427 0.884494 18.5966 0 17.5567 0Z" fill="#3F434A"/>
<path d="M3.89087 2.75945V15.4871C3.89087 15.6732 4.03513 15.824 4.21308 15.824C4.39103 15.824 4.53529 15.6732 4.53529 15.4871V3.0963H17.5152V7.7159C17.5152 7.90194 17.6595 8.05276 17.8374 8.05276C18.0154 8.05276 18.1596 7.90194 18.1596 7.7159V2.75945C18.1596 2.57341 18.0154 2.42259 17.8374 2.42259H4.21308C4.03509 2.42259 3.89087 2.57341 3.89087 2.75945Z" fill="#3F434A"/>
<path d="M3.89087 19.4038C3.89087 19.5899 4.03513 19.7407 4.21308 19.7407H17.8374C18.0154 19.7407 18.1596 19.5899 18.1596 19.4038V9.06333C18.1596 8.87729 18.0154 8.72647 17.8374 8.72647C17.6595 8.72647 17.5152 8.87729 17.5152 9.06333V19.067H4.53529V16.8346C4.53529 16.6486 4.39103 16.4977 4.21308 16.4977C4.03513 16.4977 3.89087 16.6486 3.89087 16.8346V19.4038Z" fill="#3F434A"/>
<path d="M10.0437 20.9537C10.0437 21.5196 10.484 21.9799 11.0253 21.9799C11.5666 21.9799 12.0069 21.5196 12.0069 20.9537C12.0069 20.3879 11.5665 19.9276 11.0253 19.9276C10.484 19.9276 10.0437 20.3879 10.0437 20.9537ZM11.3624 20.9537C11.3624 21.1481 11.2112 21.3062 11.0253 21.3062C10.8393 21.3062 10.6881 21.1481 10.6881 20.9537C10.6881 20.7594 10.8393 20.6013 11.0253 20.6013C11.2112 20.6013 11.3624 20.7594 11.3624 20.9537Z" fill="#3F434A"/>
<path d="M12.4175 1.87817C12.5955 1.87817 12.7397 1.72735 12.7397 1.54132C12.7397 1.35528 12.5955 1.20446 12.4175 1.20446H10.9489C10.771 1.20446 10.6267 1.35528 10.6267 1.54132C10.6267 1.72735 10.771 1.87817 10.9489 1.87817H12.4175Z" fill="#3F434A"/>
<path d="M9.71894 1.87675C9.89689 1.87675 10.0411 1.72593 10.0411 1.53989C10.0411 1.35385 9.89689 1.20303 9.71894 1.20303C9.54099 1.20303 9.39673 1.35385 9.39673 1.53989C9.39673 1.72593 9.54099 1.87675 9.71894 1.87675Z" fill="#3F434A"/>
</g>
<defs>
<clipPath id="clip0">
<rect width="22" height="23" fill="white" transform="translate(0.0253906)"/>
</clipPath>
</defs>
</svg>
