<svg width="24" height="23" viewBox="0 0 24 23" fill="none" xmlns="http://www.w3.org/2000/svg">
<g clip-path="url(#clip0)">
<path d="M18.1711 16.8792C18.3448 16.8792 18.4856 16.7385 18.4856 16.5648C18.4856 16.3911 18.3448 16.2503 18.1711 16.2503C17.9975 16.2503 17.8567 16.3911 17.8567 16.5648C17.8567 16.7385 17.9975 16.8792 18.1711 16.8792Z" fill="#3F434A"/>
<path d="M18.1711 15.8011C18.3448 15.8011 18.4856 15.6603 18.4856 15.4867C18.4856 15.313 18.3448 15.1722 18.1711 15.1722C17.9975 15.1722 17.8567 15.313 17.8567 15.4867C17.8567 15.6603 17.9975 15.8011 18.1711 15.8011Z" fill="#3F434A"/>
<path d="M18.1711 18.0472C18.3448 18.0472 18.4856 17.9064 18.4856 17.7328C18.4856 17.5591 18.3448 17.4183 18.1711 17.4183C17.9975 17.4183 17.8567 17.5591 17.8567 17.7328C17.8567 17.9064 17.9975 18.0472 18.1711 18.0472Z" fill="#3F434A"/>
<path d="M19.2493 16.8792C19.4229 16.8792 19.5637 16.7385 19.5637 16.5648C19.5637 16.3911 19.4229 16.2503 19.2493 16.2503C19.0756 16.2503 18.9348 16.3911 18.9348 16.5648C18.9348 16.7385 19.0756 16.8792 19.2493 16.8792Z" fill="#3F434A"/>
<path d="M19.2493 15.8011C19.4229 15.8011 19.5637 15.6603 19.5637 15.4867C19.5637 15.313 19.4229 15.1722 19.2493 15.1722C19.0756 15.1722 18.9348 15.313 18.9348 15.4867C18.9348 15.6603 19.0756 15.8011 19.2493 15.8011Z" fill="#3F434A"/>
<path d="M19.2493 18.0472C19.4229 18.0472 19.5637 17.9064 19.5637 17.7328C19.5637 17.5591 19.4229 17.4183 19.2493 17.4183C19.0756 17.4183 18.9348 17.5591 18.9348 17.7328C18.9348 17.9064 19.0756 18.0472 19.2493 18.0472Z" fill="#3F434A"/>
<path d="M18.1711 14.4535C18.3448 14.4535 18.4856 14.3127 18.4856 14.139C18.4856 13.9653 18.3448 13.8246 18.1711 13.8246C17.9975 13.8246 17.8567 13.9653 17.8567 14.139C17.8567 14.3127 17.9975 14.4535 18.1711 14.4535Z" fill="#3F434A"/>
<path d="M22.1269 2.07777H1.12431C0.91908 2.07799 0.722318 2.15962 0.577196 2.30474C0.432074 2.44986 0.350446 2.64663 0.35022 2.85186V15.6553C0.350446 15.8605 0.432074 16.0573 0.577196 16.2024C0.722318 16.3475 0.91908 16.4291 1.12431 16.4294H8.58099V18.0376H7.47838C7.40689 18.0376 7.33834 18.066 7.28779 18.1165C7.23724 18.1671 7.20885 18.2356 7.20885 18.3071C7.20885 18.3786 7.23724 18.4471 7.28779 18.4977C7.33834 18.5482 7.40689 18.5766 7.47838 18.5766H15.7728C15.8443 18.5766 15.9129 18.5482 15.9634 18.4977C16.014 18.4471 16.0424 18.3786 16.0424 18.3071C16.0424 18.2356 16.014 18.1671 15.9634 18.1165C15.9129 18.066 15.8443 18.0376 15.7728 18.0376H14.6702V16.4294H17.0931V19.3051C17.0931 19.734 17.2634 20.1453 17.5667 20.4486C17.87 20.7519 18.2813 20.9223 18.7102 20.9223C19.1391 20.9223 19.5505 20.7519 19.8538 20.4486C20.157 20.1453 20.3274 19.734 20.3274 19.3051V16.4293H22.1269C22.3321 16.4291 22.5289 16.3475 22.674 16.2024C22.8191 16.0572 22.9008 15.8605 22.901 15.6553V2.85186C22.9008 2.64663 22.8191 2.44986 22.674 2.30474C22.5289 2.15962 22.3321 2.07799 22.1269 2.07777ZM14.1312 18.0375H9.12005V16.4293H14.1312V18.0375ZM19.7884 19.0355H19.4701C19.3986 19.0355 19.3301 19.0639 19.2795 19.1145C19.229 19.165 19.2006 19.2336 19.2006 19.305C19.2006 19.3765 19.229 19.4451 19.2795 19.4956C19.3301 19.5462 19.3986 19.5746 19.4701 19.5746H19.7542C19.6945 19.8061 19.5596 20.0112 19.3706 20.1576C19.1816 20.3041 18.9493 20.3835 18.7102 20.3835C18.4712 20.3835 18.2389 20.3041 18.0499 20.1576C17.8609 20.0112 17.7259 19.8061 17.6663 19.5746H18.5666C18.6381 19.5746 18.7067 19.5462 18.7572 19.4956C18.8078 19.4451 18.8362 19.3765 18.8362 19.305C18.8362 19.2336 18.8078 19.165 18.7572 19.1145C18.7067 19.0639 18.6381 19.0355 18.5666 19.0355H17.6322V13.4652C17.6322 13.4175 17.6512 13.3718 17.6849 13.3381C17.7186 13.3044 17.7643 13.2855 17.8119 13.2855H19.6088C19.6565 13.2855 19.7022 13.3044 19.7359 13.3381C19.7696 13.3718 19.7885 13.4175 19.7885 13.4652L19.7884 19.0355ZM22.3619 15.6553C22.3619 15.7176 22.3371 15.7773 22.293 15.8214C22.249 15.8654 22.1892 15.8902 22.1269 15.8903H20.3274V14.9155H21.1176C21.1891 14.9155 21.2576 14.8871 21.3082 14.8366C21.3587 14.786 21.3871 14.7175 21.3871 14.646V3.86099C21.3871 3.7895 21.3587 3.72095 21.3082 3.6704C21.2576 3.61985 21.1891 3.59145 21.1176 3.59145H5.84933C5.77785 3.59145 5.70929 3.61985 5.65874 3.6704C5.6082 3.72095 5.5798 3.7895 5.5798 3.86099C5.5798 3.93247 5.6082 4.00103 5.65874 4.05157C5.70929 4.10212 5.77785 4.13052 5.84933 4.13052H20.8481V14.3766H20.3274V13.4652C20.3272 13.2746 20.2514 13.092 20.1167 12.9572C19.9819 12.8225 19.7992 12.7467 19.6087 12.7464H17.8118C17.6212 12.7467 17.4386 12.8225 17.3038 12.9572C17.1691 13.092 17.0933 13.2746 17.0931 13.4652V14.3766H2.40315V4.13052H4.05246C4.12394 4.13052 4.1925 4.10212 4.24304 4.05157C4.29359 4.00103 4.32199 3.93247 4.32199 3.86099C4.32199 3.7895 4.29359 3.72095 4.24304 3.6704C4.1925 3.61985 4.12394 3.59145 4.05246 3.59145H2.13362C2.06213 3.59145 1.99358 3.61985 1.94303 3.6704C1.89248 3.72095 1.86409 3.7895 1.86409 3.86099V14.6461C1.86409 14.7176 1.89248 14.7861 1.94303 14.8367C1.99358 14.8872 2.06213 14.9156 2.13362 14.9156H17.0931V15.8904H1.12431C1.06198 15.8904 1.00222 15.8656 0.958152 15.8215C0.914087 15.7774 0.889318 15.7176 0.889282 15.6553V2.85186C0.889354 2.78955 0.914139 2.72981 0.9582 2.68575C1.00226 2.64169 1.062 2.6169 1.12431 2.61683H22.1269C22.1892 2.6169 22.249 2.64169 22.293 2.68575C22.3371 2.72981 22.3619 2.78955 22.3619 2.85186V15.6553Z" fill="#3F434A"/>
<path d="M13.797 10.8192C13.7401 10.7758 13.6684 10.7569 13.5975 10.7664C13.5267 10.776 13.4625 10.8133 13.4192 10.8702C13.3474 10.9642 13.2684 11.0526 13.1829 11.1344C13.1313 11.1838 13.1014 11.2518 13.0998 11.3233C13.0982 11.3947 13.1251 11.4639 13.1746 11.5156C13.224 11.5673 13.292 11.5972 13.3634 11.5987C13.4349 11.6003 13.5041 11.5734 13.5558 11.5239C13.6616 11.4227 13.7593 11.3134 13.8481 11.1969C13.8696 11.1688 13.8853 11.1366 13.8943 11.1024C13.9033 11.0682 13.9055 11.0325 13.9008 10.9974C13.896 10.9624 13.8844 10.9286 13.8666 10.898C13.8488 10.8674 13.8251 10.8406 13.797 10.8192Z" fill="#3F434A"/>
<path d="M11.6256 12.2982C11.8981 12.2984 12.1692 12.2587 12.4303 12.1804C12.4644 12.1704 12.4963 12.1538 12.524 12.1315C12.5517 12.1092 12.5748 12.0816 12.5917 12.0503C12.6087 12.019 12.6194 11.9847 12.623 11.9493C12.6267 11.9139 12.6233 11.8781 12.6131 11.844C12.6028 11.81 12.5859 11.7782 12.5634 11.7507C12.5408 11.7232 12.513 11.7004 12.4816 11.6837C12.4502 11.667 12.4158 11.6566 12.3803 11.6533C12.3449 11.6499 12.3091 11.6536 12.2751 11.6641C11.7979 11.8074 11.2867 11.7882 10.8216 11.6096C10.3564 11.431 9.9637 11.1032 9.70494 10.6774C9.44619 10.2516 9.33603 9.752 9.39174 9.25689C9.44746 8.76177 9.66589 8.29915 10.0128 7.94152C10.3597 7.5839 10.8155 7.3515 11.3087 7.28076C11.8019 7.21002 12.3046 7.30493 12.738 7.55063C13.1715 7.79632 13.5111 8.17889 13.7038 8.63838C13.8964 9.09787 13.9311 9.60829 13.8025 10.0896C13.7849 10.1584 13.7951 10.2314 13.8309 10.2927C13.8668 10.3539 13.9254 10.3986 13.9939 10.4169C14.0625 10.4353 14.1356 10.4258 14.1972 10.3906C14.2589 10.3554 14.3042 10.2973 14.3232 10.2289C14.4744 9.66528 14.4452 9.06847 14.2397 8.5223C14.0343 7.97613 13.6629 7.50803 13.1778 7.18375C12.6927 6.85947 12.1181 6.6953 11.5349 6.71429C10.9517 6.73329 10.3891 6.9345 9.92608 7.28966C9.46308 7.64482 9.12296 8.13609 8.95349 8.69447C8.78403 9.25285 8.79373 9.85029 8.98123 10.4029C9.16873 10.9555 9.52462 11.4354 9.9989 11.7754C10.4732 12.1153 11.042 12.2982 11.6256 12.2982Z" fill="#3F434A"/>
<path d="M12.8924 9.2902L11.4508 8.20897C11.4107 8.17894 11.3631 8.16065 11.3133 8.15616C11.2634 8.15166 11.2133 8.16114 11.1685 8.18352C11.1238 8.20591 11.0861 8.24032 11.0598 8.2829C11.0335 8.32548 11.0195 8.37454 11.0195 8.4246V10.587C11.0195 10.6371 11.0335 10.6862 11.0598 10.7288C11.0861 10.7713 11.1238 10.8057 11.1685 10.8281C11.2133 10.8505 11.2634 10.86 11.3133 10.8555C11.3631 10.851 11.4107 10.8327 11.4508 10.8027L12.8924 9.72145C12.9259 9.69634 12.9531 9.66379 12.9718 9.62636C12.9905 9.58894 13.0002 9.54767 13.0002 9.50582C13.0002 9.46398 12.9905 9.42271 12.9718 9.38529C12.9531 9.34786 12.9259 9.3153 12.8924 9.2902ZM11.5586 10.048V8.96366L12.2815 9.50582L11.5586 10.048Z" fill="#3F434A"/>
</g>
<defs>
<clipPath id="clip0">
<rect width="23" height="23" fill="white" transform="translate(0.12561)"/>
</clipPath>
</defs>
</svg>
